<svg width="71" height="72" viewBox="0 0 71 72" fill="none" xmlns="http://www.w3.org/2000/svg">
<g clip-path="url(#clip0_68_21)">
<path d="M36.092 25.2357C40.6749 25.8912 45.7484 30.9647 46.4039 35.5476M35.3554 15.6603C46.84 15.3951 56.3167 24.8011 55.9793 36.2842M24.983 55.3746L16.2635 46.6551C15.4179 45.8095 15.3914 44.4631 16.2046 43.6499L21.4873 38.3672C21.6815 38.1716 21.8341 37.9386 21.9359 37.6824C22.0377 37.4262 22.0865 37.152 22.0795 36.8764L21.5079 27.466C21.4696 25.5715 23.7412 24.67 25.1068 26.0356L45.604 46.5328C46.9799 47.9088 46.0533 50.1936 44.1456 50.1302L34.7779 49.5719C34.4979 49.5612 34.2187 49.6083 33.9576 49.7102C33.6966 49.812 33.4593 49.9666 33.2606 50.1641L27.9897 55.435C27.1765 56.2482 25.8301 56.2217 24.983 55.3746Z" stroke="black" stroke-width="4" stroke-linecap="round" stroke-linejoin="round"/>
</g>
<defs>
<clipPath id="clip0_68_21">
<rect width="50" height="50" fill="white" transform="translate(0 36.2842) rotate(-45)"/>
</clipPath>
</defs>
</svg>
