<svg width="71" height="71" viewBox="0 0 71 71" fill="none" xmlns="http://www.w3.org/2000/svg">
<g clip-path="url(#clip0_68_48)">
<path d="M54.5063 25.0432H36.8286M45.6674 16.2044V33.882" stroke="black" stroke-width="4" stroke-linecap="round"/>
<path d="M24.983 54.4457L16.2635 45.7262C15.4179 44.8806 15.3914 43.5341 16.2046 42.7209L21.4873 37.4383C21.6815 37.2426 21.8341 37.0097 21.9359 36.7535C22.0377 36.4972 22.0865 36.2231 22.0795 35.9475L21.5079 26.537C21.4696 24.6426 23.7412 23.741 25.1068 25.1066L45.604 45.6039C46.9799 46.9798 46.0533 49.2646 44.1456 49.2013L34.7779 48.643C34.4979 48.6323 34.2187 48.6793 33.9576 48.7812C33.6966 48.8831 33.4593 49.0376 33.2606 49.2352L27.9897 54.5061C27.1765 55.3192 25.8301 55.2927 24.983 54.4457Z" stroke="black" stroke-width="4" stroke-linecap="round" stroke-linejoin="round"/>
</g>
<defs>
<clipPath id="clip0_68_48">
<rect width="50" height="50" fill="white" transform="translate(0 35.3552) rotate(-45)"/>
</clipPath>
</defs>
</svg>
